# xmcd CD database file
#
# Track frame offsets:
#	150
#	5887
#	28612
#	50700
#	66652
#	87240
#	114285
#	130170
#	152242
#	170932
#	189285
#
# Disc length: 3602 seconds
#
# Revision: 0
# Processed by: cddbd v1.5.1PL2 Copyright (c) Steve Scherf et al.
# Submitted via: CDex 1.51
#
DISCID=9b0e100b
DTITLE=アンティック-珈琲店- - 色彩モーメント
DYEAR=2005
DGENRE=Rock
TTITLE0=オープ○ング(色彩ver.)
TTITLE1=メリメイキング
TTITLE2=エピカピズム(色彩ver.)
TTITLE3=一発逆転恋愛ゲーム
TTITLE4=Golden Wing
TTITLE5=輪廻の罪
TTITLE6=玩具
TTITLE7=テケスタ光線
TTITLE8=NAPPY in the world
TTITLE9=1／2
TTITLE10=我侭行進曲
EXTD=YEAR: 2005
EXTT0=
EXTT1=
EXTT2=
EXTT3=
EXTT4=
EXTT5=
EXTT6=
EXTT7=
EXTT8=
EXTT9=
EXTT10=
PLAYORDER=
